# xmcd CD database file
#
# Track frame offsets:
#        150
#        79533
#        104003
#        123930
#        140515
#        158863
#        178708
#        199748
#        217793
#
# Disc length: 3080 seconds
#
# Revision: 0
# Processed by: cddbd v1.5.2PL0 Copyright (c) Steve Scherf et al.
# Submitted via: CUERipper 2.1.6
#
DISCID=760c0609
DTITLE=Isaac Hayes - Wonderful
DYEAR=1994
DGENRE=Soul
TTITLE0=Ain't No Sunshine
TTITLE1=Rolling Down A Mountainside
TTITLE2=I Can't Help It (If I'm Still In Love With You)
TTITLE3=Wonderful
TTITLE4=Someone Made You For Me
TTITLE5=Ain't That Loving You (For More Reasons That One)
TTITLE6=Baby I'm-A Want You
TTITLE7=The Mistletoe And Me
TTITLE8=Winter Snow
EXTD=
EXTT0=
EXTT1=
EXTT2=
EXTT3=
EXTT4=
EXTT5=
EXTT6=
EXTT7=
EXTT8=
PLAYORDER=
